<svg width="554" height="555" viewBox="0 0 554 555" fill="none" xmlns="http://www.w3.org/2000/svg">
<line x1="14.3362" y1="165.788" x2="491.169" y2="88.8507" stroke="#33272A" stroke-width="4"/>
<line x1="6.37163" y1="116.427" x2="483.205" y2="39.4894" stroke="#33272A" stroke-width="4"/>
<line x1="165.374" y1="540.008" x2="88.4369" y2="63.1746" stroke="#33272A" stroke-width="4"/>
<line x1="115.599" y1="548.545" x2="38.6613" y2="71.7122" stroke="#33272A" stroke-width="4"/>
<line x1="22.3007" y1="215.15" x2="499.134" y2="138.213" stroke="#33272A" stroke-width="4"/>
<line x1="214.736" y1="532.043" x2="137.798" y2="55.2098" stroke="#33272A" stroke-width="4"/>
<line x1="30.2653" y1="264.511" x2="507.098" y2="187.574" stroke="#33272A" stroke-width="4"/>
<line x1="264.098" y1="524.078" x2="187.16" y2="47.2454" stroke="#33272A" stroke-width="4"/>
<line x1="38.2298" y1="313.873" x2="515.063" y2="236.936" stroke="#33272A" stroke-width="4"/>
<line x1="313.459" y1="516.114" x2="236.522" y2="39.2811" stroke="#33272A" stroke-width="4"/>
<line x1="46.1944" y1="363.235" x2="523.027" y2="286.297" stroke="#33272A" stroke-width="4"/>
<line x1="362.821" y1="508.149" x2="285.883" y2="31.3163" stroke="#33272A" stroke-width="4"/>
<line x1="54.1589" y1="412.596" x2="530.992" y2="335.659" stroke="#33272A" stroke-width="4"/>
<line x1="412.182" y1="500.185" x2="335.245" y2="23.3519" stroke="#33272A" stroke-width="4"/>
<line x1="62.1235" y1="461.958" x2="538.956" y2="385.02" stroke="#33272A" stroke-width="4"/>
<line x1="70.088" y1="511.319" x2="546.921" y2="434.382" stroke="#33272A" stroke-width="4"/>
<line x1="461.544" y1="492.22" x2="384.606" y2="15.3871" stroke="#33272A" stroke-width="4"/>
<line x1="511.319" y1="483.682" x2="434.382" y2="6.84945" stroke="#33272A" stroke-width="4"/>
</svg>
