<svg width="130" height="130" viewBox="0 0 130 130" fill="none" xmlns="http://www.w3.org/2000/svg">
<g filter="url(#filter0_d)">
<path d="M63.1878 8.6088C63.9061 7.0703 66.0939 7.0703 66.8122 8.60881L73.8282 23.6356C75.2989 26.7854 79.13 28.0302 82.1712 26.3464L96.6798 18.3134C98.1653 17.4909 99.9352 18.7768 99.612 20.4437L96.4556 36.7246C95.7939 40.1373 98.1617 43.3962 101.612 43.8215L118.071 45.8507C119.756 46.0584 120.432 48.1391 119.191 49.2977L107.068 60.6139C104.527 62.9859 104.527 67.0141 107.068 69.3861L119.191 80.7023C120.432 81.8609 119.756 83.9416 118.071 84.1493L101.612 86.1785C98.1617 86.6038 95.7939 89.8627 96.4556 93.2754L99.612 109.556C99.9352 111.223 98.1653 112.509 96.6798 111.687L82.1712 103.654C79.13 101.97 75.2989 103.215 73.8282 106.364L66.8122 121.391C66.0939 122.93 63.9061 122.93 63.1878 121.391L56.1717 106.364C54.7011 103.215 50.87 101.97 47.8288 103.654L33.3202 111.687C31.8347 112.509 30.0648 111.223 30.388 109.556L33.5444 93.2754C34.2061 89.8627 31.8383 86.6038 28.3882 86.1785L11.9288 84.1493C10.2436 83.9416 9.56755 81.8609 10.8088 80.7023L22.9321 69.3861C25.4732 67.0141 25.4732 62.9859 22.9321 60.6139L10.8088 49.2977C9.56756 48.1391 10.2436 46.0584 11.9288 45.8507L28.3882 43.8215C31.8383 43.3962 34.2061 40.1373 33.5444 36.7246L30.388 20.4437C30.0648 18.7768 31.8347 17.4909 33.3202 18.3134L47.8288 26.3464C50.87 28.0302 54.7011 26.7854 56.1718 23.6356L63.1878 8.6088Z" fill="#FAEEE7" stroke="#33272A" stroke-width="4"/>
<path d="M38.859 81.1197L43.2819 79.194C46.9953 77.5773 48.1686 74.4554 46.6093 70.8741C45.1435 67.5074 41.9655 66.0247 38.2521 67.6415L33.8292 69.5672L34.5908 71.3165L35.6141 70.8711L39.1205 78.9248L38.0973 79.3703L38.859 81.1197ZM41.0816 77.9729L37.6541 70.1006L39.0569 69.4899C41.4499 68.448 43.488 69.3864 44.5299 71.7795C45.6149 74.2715 44.8609 76.3274 42.4844 77.3621L41.0816 77.9729ZM55.0339 74.3326C56.8328 73.5494 58.0291 71.9684 57.807 69.9252L55.8378 70.2721C55.941 71.3659 55.2489 72.2562 54.2916 72.6729C52.8723 73.2909 51.5292 72.7762 50.8804 71.3311L57.4324 68.4785L57.1952 67.9339C56.0743 65.3593 53.64 64.1419 50.9994 65.2915C48.6724 66.3047 47.473 69.006 48.6586 71.7291C49.8083 74.3697 52.3933 75.4823 55.0339 74.3326ZM50.279 69.9046C49.9418 68.8146 50.5017 67.5303 51.7395 66.9914C52.9277 66.4741 54.2248 66.7928 54.834 67.9214L50.279 69.9046ZM64.0223 70.4192C66.1513 69.4923 67.0016 67.7478 66.2615 66.0479C64.7454 62.5657 60.5874 66.1822 59.8832 64.5648C59.6604 64.0532 59.9975 63.4745 60.8226 63.1153C61.6478 62.756 62.3598 62.8583 62.8554 63.5456L64.3799 62.3125C63.3909 60.8977 61.7207 60.6237 60.0538 61.3494C58.0899 62.2044 57.3644 63.8749 58.0039 65.3437C59.5344 68.859 63.5819 65.3495 64.3436 67.0989C64.5951 67.6765 64.2509 68.2387 63.3101 68.6483C62.4024 69.0434 61.5885 68.8874 61.0118 68.0587L59.343 69.2761C60.3429 70.9414 62.1409 71.2383 64.0223 70.4192ZM67.0544 56.9665C67.764 56.6575 68.0622 55.8994 67.7604 55.2063C67.4658 54.5296 66.7078 54.2315 65.9981 54.5404C65.2884 54.8494 64.9903 55.6075 65.2849 56.2841C65.5867 56.9773 66.3447 57.2754 67.0544 56.9665ZM70.4113 67.3823L72.3588 66.5344L68.5936 57.8865L65.1278 59.3954L65.8751 61.1118L67.3934 60.4508L70.4113 67.3823ZM78.233 68.4922L82.0783 66.818C83.6957 66.1139 84.5132 64.8352 83.7228 63.0198L79.4331 53.1671L77.5187 54.0006L77.9929 55.0899L77.8444 55.1546C77.2945 54.8835 76.204 54.3178 74.6362 55.0004C72.3092 56.0136 71.4407 58.7083 72.5616 61.2829C73.7113 63.9234 76.2942 65.0762 78.6047 64.0702C80.0735 63.4307 80.5072 62.3977 80.6496 61.6879L80.7982 61.6232L81.7179 63.7357C81.991 64.3628 81.8727 64.7676 81.2786 65.0263L77.4498 66.6933L78.233 68.4922ZM78.1537 62.0875C76.7839 62.6838 75.2462 62.038 74.5492 60.4371C73.8379 58.8033 74.4435 57.2635 75.8133 56.6671C77.2327 56.0491 78.7352 56.7496 79.4178 58.3174C80.122 59.9348 79.54 61.4839 78.1537 62.0875ZM85.6661 60.7406L87.6135 59.8927L85.3932 54.7931C84.919 53.7039 85.3684 52.5266 86.4411 52.0595C87.4313 51.6284 88.5139 52.0405 88.9809 53.1133L91.2443 58.3119L93.1917 57.464L90.7271 51.8033C89.9511 50.0209 88.1284 49.1261 86.2305 49.9525C85.0752 50.4554 84.5202 51.345 84.428 52.1704L84.2795 52.235L83.8484 51.2448L81.9009 52.0927L85.6661 60.7406Z" fill="#33272A"/>
</g>
<defs>
<filter id="filter0_d" x="8.1687" y="5.45483" width="117.663" height="123.09" filterUnits="userSpaceOnUse" color-interpolation-filters="sRGB">
<feFlood flood-opacity="0" result="BackgroundImageFix"/>
<feColorMatrix in="SourceAlpha" type="matrix" values="0 0 0 0 0 0 0 0 0 0 0 0 0 0 0 0 0 0 127 0"/>
<feOffset dx="4" dy="4"/>
<feColorMatrix type="matrix" values="0 0 0 0 0 0 0 0 0 0 0 0 0 0 0 0 0 0 1 0"/>
<feBlend mode="normal" in2="BackgroundImageFix" result="effect1_dropShadow"/>
<feBlend mode="normal" in="SourceGraphic" in2="effect1_dropShadow" result="shape"/>
</filter>
</defs>
</svg>
