<svg width="130" height="132" viewBox="0 0 130 132" fill="none" xmlns="http://www.w3.org/2000/svg">
<g filter="url(#filter0_d)">
<path d="M63.5051 4.69241C64.3007 3.79729 65.6993 3.79729 66.4949 4.69241L85.3728 25.9318C86.2321 26.8986 87.3808 27.5618 88.6477 27.8226L116.48 33.5516C117.653 33.793 118.353 35.0042 117.975 36.1408L109.02 63.1092C108.613 64.3368 108.613 65.6632 109.02 66.8908L117.975 93.8592C118.353 94.9958 117.653 96.2069 116.48 96.4484L88.6477 102.177C87.3808 102.438 86.2321 103.101 85.3728 104.068L66.4949 125.308C65.6993 126.203 64.3007 126.203 63.5051 125.308L44.6272 104.068C43.7679 103.101 42.6192 102.438 41.3523 102.177L13.5195 96.4484C12.3465 96.207 11.6473 94.9958 12.0247 93.8592L20.9795 66.8908C21.3872 65.6632 21.3872 64.3368 20.9795 63.1092L12.0247 36.1408C11.6473 35.0042 12.3465 33.7931 13.5195 33.5516L41.3523 27.8226C42.6192 27.5618 43.7679 26.8986 44.6272 25.9318L63.5051 4.69241Z" fill="#C3F0CA" stroke="#33272A" stroke-width="4"/>
<path d="M22.2946 53.1481L24.4024 54.0659L26.5718 49.0837L31.4843 51.2228L32.3339 49.2717L27.4214 47.1327L28.855 43.8403L34.1159 46.131L34.9731 44.1626L27.6043 40.954L22.2946 53.1481ZM31.579 57.1908L33.6346 58.0859L35.5992 53.5741C36.3501 51.8495 37.6142 51.1358 39.1123 51.7881L40.0182 52.1826L40.9132 50.127L40.2338 49.8311C39.0667 49.3229 37.8293 49.7374 37.1472 50.3522L37.0078 50.2915L37.5919 48.9501L35.5537 48.0627L31.579 57.1908ZM42.4834 62.2084C45.2881 63.4296 48.2114 62.2365 49.3948 59.519C50.5781 56.8014 49.4774 53.8561 46.6728 52.6349C43.8681 51.4136 40.9447 52.6067 39.7614 55.3243C38.5705 58.0593 39.6788 60.9872 42.4834 62.2084ZM43.333 60.2573C41.7477 59.5671 41.1312 57.8894 41.8518 56.2345C42.5573 54.6145 44.2031 53.8805 45.8058 54.5784C47.4084 55.2762 48.0098 56.9887 47.3043 58.6087C46.5913 60.2462 44.9356 60.9552 43.333 60.2573ZM49.4075 64.954L51.463 65.849L53.8069 60.4662C54.3075 59.3165 55.5404 58.8172 56.6727 59.3102C57.7179 59.7653 58.1779 60.8982 57.6849 62.0305L55.2955 67.5178L57.3511 68.4129L59.9528 62.4378C60.772 60.5564 60.1527 58.5045 58.1494 57.6322C56.93 57.1012 55.8435 57.312 55.1394 57.8343L54.9826 57.7661L55.4378 56.7209L53.3822 55.8258L49.4075 64.954ZM63.6171 71.1414L65.2198 71.8392L66.0163 70.0101L64.431 69.3198C63.8039 69.0468 63.664 68.6543 63.9446 68.0097L65.932 63.4456L68.5102 64.5683L69.299 62.7566L66.7209 61.6339L67.8359 59.0732L65.8848 58.2236L64.7698 60.7844L63.0626 60.041L62.2737 61.8527L63.859 62.543L61.864 67.1245C61.0221 69.0581 61.8403 70.3677 63.6171 71.1414ZM72.1224 74.8449L79.6653 78.1293L80.5225 76.1608L75.0874 73.7942L76.5059 70.5366L81.0351 72.5088L81.8847 70.5578L77.3554 68.5856L78.6828 65.537L83.9437 67.8278L84.8009 65.8593L77.4322 62.6507L72.1224 74.8449ZM81.7641 79.0432L83.8196 79.9382L86.1635 74.5554C86.6642 73.4057 87.897 72.9064 89.0293 73.3994C90.0745 73.8545 90.5345 74.9874 90.0415 76.1197L87.6521 81.607L89.7077 82.5021L92.3094 76.527C93.1287 74.6456 92.5093 72.5937 90.506 71.7214C89.2866 71.1904 88.2001 71.4012 87.496 71.9236L87.3392 71.8553L87.7944 70.8101L85.7388 69.915L81.7641 79.0432ZM95.7706 85.4115C97.3559 86.1018 98.469 85.5918 99.0571 85.2883L99.2139 85.3566L98.7436 86.4366L100.764 87.3165L106.453 74.2514L104.398 73.3563L102.175 78.4605L102.018 78.3922C101.845 77.6951 101.441 76.4828 99.8206 75.7773C97.3644 74.7078 94.7023 76.0147 93.519 78.7322C92.3129 81.502 93.3144 84.342 95.7706 85.4115ZM96.936 83.6394C95.5075 83.0174 94.8334 81.3769 95.5844 79.6523C96.3202 77.9625 97.9509 77.2634 99.4142 77.9006C100.825 78.515 101.53 80.0859 100.741 81.8976C100.066 83.448 98.4864 84.3145 96.936 83.6394Z" fill="#33272A"/>
</g>
<defs>
<filter id="filter0_d" x="9.92114" y="2.021" width="114.158" height="129.958" filterUnits="userSpaceOnUse" color-interpolation-filters="sRGB">
<feFlood flood-opacity="0" result="BackgroundImageFix"/>
<feColorMatrix in="SourceAlpha" type="matrix" values="0 0 0 0 0 0 0 0 0 0 0 0 0 0 0 0 0 0 127 0"/>
<feOffset dx="4" dy="4"/>
<feColorMatrix type="matrix" values="0 0 0 0 0 0 0 0 0 0 0 0 0 0 0 0 0 0 1 0"/>
<feBlend mode="normal" in2="BackgroundImageFix" result="effect1_dropShadow"/>
<feBlend mode="normal" in="SourceGraphic" in2="effect1_dropShadow" result="shape"/>
</filter>
</defs>
</svg>
