<svg width="689" height="592" viewBox="0 0 689 592" fill="none" xmlns="http://www.w3.org/2000/svg">
<mask id="mask0" mask-type="alpha" maskUnits="userSpaceOnUse" x="0" y="-462" width="1054" height="1054">
<circle cx="526.615" cy="64.6155" r="372.373" transform="rotate(45 526.615 64.6155)" fill="#C4C4C4"/>
</mask>
<g mask="url(#mask0)">
<line x1="603.127" y1="691.784" x2="1151.31" y2="143.605" stroke="#594A4E" stroke-width="4"/>
<line x1="580.428" y1="669.085" x2="1128.61" y2="120.906" stroke="#594A4E" stroke-width="4"/>
<line x1="557.729" y1="646.386" x2="1105.91" y2="98.2066" stroke="#594A4E" stroke-width="4"/>
<line x1="535.03" y1="623.687" x2="1083.21" y2="75.5074" stroke="#594A4E" stroke-width="4"/>
<line x1="512.332" y1="600.988" x2="1060.51" y2="52.8085" stroke="#594A4E" stroke-width="4"/>
<line x1="489.633" y1="578.289" x2="1037.81" y2="30.1095" stroke="#594A4E" stroke-width="4"/>
<line x1="466.934" y1="555.59" x2="1015.11" y2="7.41075" stroke="#594A4E" stroke-width="4"/>
<line x1="444.235" y1="532.891" x2="992.414" y2="-15.2884" stroke="#594A4E" stroke-width="4"/>
<line x1="421.535" y1="510.192" x2="969.715" y2="-37.9872" stroke="#594A4E" stroke-width="4"/>
<line x1="398.837" y1="487.493" x2="947.016" y2="-60.6864" stroke="#594A4E" stroke-width="4"/>
<line x1="376.138" y1="464.794" x2="924.317" y2="-83.3851" stroke="#594A4E" stroke-width="4"/>
<line x1="353.439" y1="442.095" x2="901.618" y2="-106.084" stroke="#594A4E" stroke-width="4"/>
<line x1="330.74" y1="419.397" x2="878.919" y2="-128.783" stroke="#594A4E" stroke-width="4"/>
<line x1="308.041" y1="396.697" x2="856.221" y2="-151.482" stroke="#594A4E" stroke-width="4"/>
<line x1="285.342" y1="373.999" x2="833.522" y2="-174.181" stroke="#594A4E" stroke-width="4"/>
<line x1="262.643" y1="351.3" x2="810.823" y2="-196.88" stroke="#594A4E" stroke-width="4"/>
<line x1="239.944" y1="328.601" x2="788.124" y2="-219.579" stroke="#594A4E" stroke-width="4"/>
<line x1="217.245" y1="305.902" x2="765.425" y2="-242.278" stroke="#594A4E" stroke-width="4"/>
<line x1="194.546" y1="283.203" x2="742.726" y2="-264.977" stroke="#594A4E" stroke-width="4"/>
<line x1="171.847" y1="260.504" x2="720.027" y2="-287.676" stroke="#594A4E" stroke-width="4"/>
<line x1="149.148" y1="237.805" x2="697.328" y2="-310.374" stroke="#594A4E" stroke-width="4"/>
<line x1="126.449" y1="215.106" x2="674.629" y2="-333.073" stroke="#594A4E" stroke-width="4"/>
<line x1="103.751" y1="192.407" x2="651.93" y2="-355.772" stroke="#594A4E" stroke-width="4"/>
<line x1="81.0517" y1="169.708" x2="629.231" y2="-378.471" stroke="#594A4E" stroke-width="4"/>
<line x1="58.3526" y1="147.009" x2="606.532" y2="-401.17" stroke="#594A4E" stroke-width="4"/>
<line x1="35.6538" y1="124.31" x2="583.833" y2="-423.869" stroke="#594A4E" stroke-width="4"/>
<line x1="12.9547" y1="101.611" x2="561.134" y2="-446.568" stroke="#594A4E" stroke-width="4"/>
<line x1="-9.74405" y1="78.9123" x2="538.435" y2="-469.267" stroke="#594A4E" stroke-width="4"/>
<line x1="-32.443" y1="56.2135" x2="515.737" y2="-491.966" stroke="#594A4E" stroke-width="4"/>
<line x1="-55.142" y1="33.5145" x2="493.038" y2="-514.665" stroke="#594A4E" stroke-width="4"/>
<line x1="-77.841" y1="10.8156" x2="470.339" y2="-537.364" stroke="#594A4E" stroke-width="4"/>
</g>
</svg>
