<svg width="512" height="215" viewBox="0 0 512 215" fill="none" xmlns="http://www.w3.org/2000/svg">
<circle cx="9.74773" cy="9.74773" r="9.74773" fill="#594A4E"/>
<circle cx="55.2372" cy="9.74773" r="9.74773" fill="#594A4E"/>
<circle cx="100.726" cy="9.74773" r="9.74773" fill="#594A4E"/>
<circle cx="146.216" cy="9.74773" r="9.74773" fill="#594A4E"/>
<circle cx="191.705" cy="9.74773" r="9.74773" fill="#594A4E"/>
<circle cx="237.195" cy="9.74773" r="9.74773" fill="#594A4E"/>
<circle cx="282.684" cy="9.74773" r="9.74773" fill="#594A4E"/>
<circle cx="328.173" cy="9.74773" r="9.74773" fill="#594A4E"/>
<circle cx="373.663" cy="9.74773" r="9.74773" fill="#594A4E"/>
<circle cx="419.152" cy="9.74773" r="9.74773" fill="#594A4E"/>
<circle cx="464.642" cy="9.74773" r="9.74773" fill="#594A4E"/>
<circle cx="510.131" cy="9.74773" r="9.74773" fill="#594A4E"/>
<circle cx="9.74773" cy="48.7386" r="9.74773" fill="#594A4E"/>
<circle cx="55.2372" cy="48.7386" r="9.74773" fill="#594A4E"/>
<circle cx="100.726" cy="48.7386" r="9.74773" fill="#594A4E"/>
<circle cx="146.216" cy="48.7386" r="9.74773" fill="#594A4E"/>
<circle cx="191.705" cy="48.7386" r="9.74773" fill="#594A4E"/>
<circle cx="237.195" cy="48.7386" r="9.74773" fill="#594A4E"/>
<circle cx="282.684" cy="48.7386" r="9.74773" fill="#594A4E"/>
<circle cx="328.173" cy="48.7386" r="9.74773" fill="#594A4E"/>
<circle cx="373.663" cy="48.7386" r="9.74773" fill="#594A4E"/>
<circle cx="419.152" cy="48.7386" r="9.74773" fill="#594A4E"/>
<circle cx="464.642" cy="48.7386" r="9.74773" fill="#594A4E"/>
<circle cx="510.131" cy="48.7386" r="9.74773" fill="#594A4E"/>
<circle cx="9.74773" cy="87.7295" r="9.74773" fill="#594A4E"/>
<circle cx="55.2372" cy="87.7295" r="9.74773" fill="#594A4E"/>
<circle cx="100.726" cy="87.7295" r="9.74773" fill="#594A4E"/>
<circle cx="146.216" cy="87.7295" r="9.74773" fill="#594A4E"/>
<circle cx="191.705" cy="87.7295" r="9.74773" fill="#594A4E"/>
<circle cx="237.195" cy="87.7295" r="9.74773" fill="#594A4E"/>
<circle cx="282.684" cy="87.7295" r="9.74773" fill="#594A4E"/>
<circle cx="328.173" cy="87.7295" r="9.74773" fill="#594A4E"/>
<circle cx="373.663" cy="87.7295" r="9.74773" fill="#594A4E"/>
<circle cx="419.152" cy="87.7295" r="9.74773" fill="#594A4E"/>
<circle cx="464.642" cy="87.7295" r="9.74773" fill="#594A4E"/>
<circle cx="510.131" cy="87.7295" r="9.74773" fill="#594A4E"/>
<circle cx="9.74773" cy="126.72" r="9.74773" fill="#594A4E"/>
<circle cx="55.2372" cy="126.72" r="9.74773" fill="#594A4E"/>
<circle cx="100.726" cy="126.72" r="9.74773" fill="#594A4E"/>
<circle cx="146.216" cy="126.72" r="9.74773" fill="#594A4E"/>
<circle cx="191.705" cy="126.72" r="9.74773" fill="#594A4E"/>
<circle cx="237.195" cy="126.72" r="9.74773" fill="#594A4E"/>
<circle cx="282.684" cy="126.72" r="9.74773" fill="#594A4E"/>
<circle cx="328.173" cy="126.72" r="9.74773" fill="#594A4E"/>
<circle cx="373.663" cy="126.72" r="9.74773" fill="#594A4E"/>
<circle cx="419.152" cy="126.72" r="9.74773" fill="#594A4E"/>
<circle cx="464.642" cy="126.72" r="9.74773" fill="#594A4E"/>
<circle cx="510.131" cy="126.72" r="9.74773" fill="#594A4E"/>
<circle cx="9.74773" cy="165.711" r="9.74773" fill="#594A4E"/>
<circle cx="55.2372" cy="165.711" r="9.74773" fill="#594A4E"/>
<circle cx="100.726" cy="165.711" r="9.74773" fill="#594A4E"/>
<circle cx="146.216" cy="165.711" r="9.74773" fill="#594A4E"/>
<circle cx="191.705" cy="165.711" r="9.74773" fill="#594A4E"/>
<circle cx="237.195" cy="165.711" r="9.74773" fill="#594A4E"/>
<circle cx="282.684" cy="165.711" r="9.74773" fill="#594A4E"/>
<circle cx="328.173" cy="165.711" r="9.74773" fill="#594A4E"/>
<circle cx="373.663" cy="165.711" r="9.74773" fill="#594A4E"/>
<circle cx="419.152" cy="165.711" r="9.74773" fill="#594A4E"/>
<circle cx="464.642" cy="165.711" r="9.74773" fill="#594A4E"/>
<circle cx="510.131" cy="165.711" r="9.74773" fill="#594A4E"/>
<circle cx="9.74773" cy="204.702" r="9.74773" fill="#594A4E"/>
<circle cx="55.2372" cy="204.702" r="9.74773" fill="#594A4E"/>
<circle cx="100.726" cy="204.702" r="9.74773" fill="#594A4E"/>
<circle cx="146.216" cy="204.702" r="9.74773" fill="#594A4E"/>
<circle cx="191.705" cy="204.702" r="9.74773" fill="#594A4E"/>
<circle cx="237.195" cy="204.702" r="9.74773" fill="#594A4E"/>
<circle cx="282.684" cy="204.702" r="9.74773" fill="#594A4E"/>
<circle cx="328.173" cy="204.702" r="9.74773" fill="#594A4E"/>
<circle cx="373.663" cy="204.702" r="9.74773" fill="#594A4E"/>
<circle cx="419.152" cy="204.702" r="9.74773" fill="#594A4E"/>
<circle cx="464.642" cy="204.702" r="9.74773" fill="#594A4E"/>
<circle cx="510.131" cy="204.702" r="9.74773" fill="#594A4E"/>
</svg>
