<svg width="413" height="666" viewBox="0 0 413 666" fill="none" xmlns="http://www.w3.org/2000/svg">
<line x1="-205.078" y1="328.8" x2="207.084" y2="76.9832" stroke="#594A4E" stroke-width="4"/>
<line x1="-231.146" y1="286.133" x2="181.016" y2="34.3163" stroke="#594A4E" stroke-width="4"/>
<line x1="76.4514" y1="617.927" x2="-175.366" y2="205.765" stroke="#594A4E" stroke-width="4"/>
<line x1="33.6186" y1="644.682" x2="-218.199" y2="232.52" stroke="#594A4E" stroke-width="4"/>
<line x1="-179.01" y1="371.467" x2="233.152" y2="119.65" stroke="#594A4E" stroke-width="4"/>
<line x1="119.118" y1="591.858" x2="-132.699" y2="179.697" stroke="#594A4E" stroke-width="4"/>
<line x1="-152.942" y1="414.134" x2="259.22" y2="162.317" stroke="#594A4E" stroke-width="4"/>
<line x1="161.785" y1="565.79" x2="-90.032" y2="153.629" stroke="#594A4E" stroke-width="4"/>
<line x1="-126.873" y1="456.801" x2="285.288" y2="204.984" stroke="#594A4E" stroke-width="4"/>
<line x1="204.452" y1="539.722" x2="-47.3652" y2="127.561" stroke="#594A4E" stroke-width="4"/>
<line x1="-100.805" y1="499.468" x2="311.356" y2="247.651" stroke="#594A4E" stroke-width="4"/>
<line x1="247.119" y1="513.654" x2="-4.69836" y2="101.493" stroke="#594A4E" stroke-width="4"/>
<line x1="-74.7374" y1="542.134" x2="337.424" y2="290.317" stroke="#594A4E" stroke-width="4"/>
<line x1="289.786" y1="487.586" x2="37.9684" y2="75.4247" stroke="#594A4E" stroke-width="4"/>
<line x1="-48.6694" y1="584.801" x2="363.492" y2="332.984" stroke="#594A4E" stroke-width="4"/>
<line x1="-22.6014" y1="627.468" x2="389.56" y2="375.651" stroke="#594A4E" stroke-width="4"/>
<line x1="332.452" y1="461.518" x2="80.6353" y2="49.3567" stroke="#594A4E" stroke-width="4"/>
<line x1="375.285" y1="434.763" x2="123.468" y2="22.6014" stroke="#594A4E" stroke-width="4"/>
</svg>
