<svg width="87" height="99" viewBox="0 0 87 99" fill="none" xmlns="http://www.w3.org/2000/svg">
<path d="M66.5175 69.4101L63.5479 69.8611L65.1093 72.4271L74.9865 88.6583L74.9883 88.6611C75.0872 88.8231 75.0483 89.0521 74.8659 89.1724L68.915 92.8634L68.9141 92.8639C68.8384 92.9109 68.7638 92.9204 68.6845 92.9006C68.6004 92.8796 68.5141 92.8244 68.4527 92.7298L59.0778 77.3327L57.5185 74.7717L55.753 77.1952L46.2329 90.2633C46.2329 90.2633 46.2328 90.2633 46.2328 90.2634C46.16 90.3633 46.1061 90.3833 46.0852 90.3901C46.052 90.4009 45.9957 90.4075 45.921 90.3873C45.7583 90.3432 45.6688 90.2301 45.6489 90.099L37.3315 35.3389C37.3165 35.2398 37.3344 35.1821 37.3559 35.1401C37.3832 35.0866 37.4355 35.0262 37.5124 34.9803C37.5901 34.9339 37.6577 34.9231 37.6942 34.9242C37.7165 34.9249 37.7376 34.9277 37.7771 34.9596L37.8081 34.9847L37.8402 35.0085L80.4088 66.6859L80.4304 66.7021L80.4525 66.7176C80.5203 66.7652 80.5376 66.8027 80.5472 66.8315C80.5612 66.8738 80.5698 66.9469 80.5468 67.0389C80.5237 67.1312 80.4783 67.2035 80.4333 67.2474C80.3968 67.2831 80.3544 67.3084 80.2832 67.3192L66.5175 69.4101Z" fill="white" stroke="#33272A" stroke-width="4"/>
<line x1="2" y1="40" x2="23" y2="40" stroke="#33272A" stroke-width="4" stroke-linecap="round"/>
<line x1="12.8284" y1="12" x2="27.6777" y2="26.8492" stroke="#33272A" stroke-width="4" stroke-linecap="round"/>
<line x1="40" y1="2" x2="40" y2="23" stroke="#33272A" stroke-width="4" stroke-linecap="round"/>
<line x1="66.6985" y1="12.8284" x2="51.8492" y2="27.6777" stroke="#33272A" stroke-width="4" stroke-linecap="round"/>
</svg>
