<svg width="335" height="661" viewBox="0 0 335 661" fill="none" xmlns="http://www.w3.org/2000/svg">
<line x1="197" y1="77.9423" x2="615.29" y2="319.442" stroke="#594A4E" stroke-width="4"/>
<line x1="222" y1="34.641" x2="640.29" y2="276.141" stroke="#594A4E" stroke-width="4"/>
<line x1="77.7593" y1="463.473" x2="319.259" y2="45.183" stroke="#594A4E" stroke-width="4"/>
<line x1="33.775" y1="438.656" x2="275.275" y2="20.366" stroke="#594A4E" stroke-width="4"/>
<line x1="172" y1="121.244" x2="590.29" y2="362.744" stroke="#594A4E" stroke-width="4"/>
<line x1="121.061" y1="488.473" x2="362.561" y2="70.183" stroke="#594A4E" stroke-width="4"/>
<line x1="147" y1="164.545" x2="565.29" y2="406.045" stroke="#594A4E" stroke-width="4"/>
<line x1="164.362" y1="513.473" x2="405.862" y2="95.183" stroke="#594A4E" stroke-width="4"/>
<line x1="122" y1="207.846" x2="540.29" y2="449.346" stroke="#594A4E" stroke-width="4"/>
<line x1="207.663" y1="538.473" x2="449.163" y2="120.183" stroke="#594A4E" stroke-width="4"/>
<line x1="97" y1="251.147" x2="515.29" y2="492.647" stroke="#594A4E" stroke-width="4"/>
<line x1="250.964" y1="563.473" x2="492.464" y2="145.183" stroke="#594A4E" stroke-width="4"/>
<line x1="72" y1="294.449" x2="490.29" y2="535.949" stroke="#594A4E" stroke-width="4"/>
<line x1="294.266" y1="588.473" x2="535.766" y2="170.183" stroke="#594A4E" stroke-width="4"/>
<line x1="47" y1="337.75" x2="465.29" y2="579.25" stroke="#594A4E" stroke-width="4"/>
<line x1="22" y1="381.051" x2="440.29" y2="622.551" stroke="#594A4E" stroke-width="4"/>
</svg>
